<svg width="60" height="60" viewBox="0 0 60 60" fill="none" xmlns="http://www.w3.org/2000/svg">
<path d="M30 60C45.8566 60 58.7109 47.1457 58.7109 31.2891C58.7109 15.4324 45.8566 2.57812 30 2.57812C14.1434 2.57812 1.28906 15.4324 1.28906 31.2891C1.28906 47.1457 14.1434 60 30 60Z" fill="#FFAF20" fill-opacity="0.12"/>
<path d="M32.0508 42.3977V36.1147C31.8088 36.174 31.556 36.206 31.2957 36.206H28.7043C28.444 36.206 28.1912 36.174 27.9492 36.1147V42.3977H32.0508Z" fill="#FFAF10"/>
<path d="M29.7656 42.3977V36.206H28.7043C28.444 36.206 28.1912 36.174 27.9492 36.1147V42.3977H29.7656Z" fill="#EF9614"/>
<path d="M29.9998 33.3988C28.4292 33.3988 26.9249 33.1096 25.5366 32.583V33.1608C25.5366 34.91 26.9547 36.3281 28.7041 36.3281H31.2956C33.0449 36.3281 34.463 34.91 34.463 33.1608V32.583C33.0746 33.1096 31.5705 33.3988 29.9998 33.3988Z" fill="#FFD00D"/>
<path d="M29.1675 33.3707C27.8974 33.2875 26.678 33.0158 25.5371 32.583V33.1608C25.5371 34.91 26.9552 36.3281 28.7046 36.3281H31.296C31.4717 36.3281 31.6439 36.3132 31.8117 36.2857C30.3751 36.0504 29.2643 34.8491 29.1675 33.3707Z" fill="#FFAF10"/>
<path d="M34.5703 44.7656V42.7734C34.5703 42.4512 34.3066 42.1875 33.9844 42.1875H26.0156C25.6934 42.1875 25.4297 42.4512 25.4297 42.7734V44.7656H34.5703Z" fill="#EF8318"/>
<path d="M28.9453 44.7656V42.7734C28.9453 42.4512 29.209 42.1875 29.5312 42.1875H26.0156C25.6934 42.1875 25.4297 42.4512 25.4297 42.7734V44.7656H28.9453Z" fill="#DB722C"/>
<path d="M41.0742 54.7266V45.1172C41.0742 44.7949 40.8105 44.5312 40.4883 44.5312H19.5117C19.1895 44.5312 18.9258 44.7949 18.9258 45.1172V54.7266H41.0742Z" fill="#A05F33"/>
<path d="M20.7422 54.7266V45.1172C20.7422 44.7949 21.0059 44.5312 21.3281 44.5312H19.5117C19.1895 44.5312 18.9258 44.7949 18.9258 45.1172V54.7266H20.7422Z" fill="#87502A"/>
<path d="M37.8543 52.1484C37.8543 52.4707 37.5906 52.7344 37.2683 52.7344H22.7319C22.4097 52.7344 22.146 52.4707 22.146 52.1484V47.2266C22.146 46.9043 22.4097 46.6406 22.7319 46.6406H37.2683C37.5906 46.6406 37.8543 46.9043 37.8543 47.2266V52.1484Z" fill="#293D7C"/>
<path d="M24.4871 52.1484V47.2266C24.4871 46.9043 24.7507 46.6406 25.073 46.6406H22.7319C22.4097 46.6406 22.146 46.9043 22.146 47.2266V52.1484C22.146 52.4707 22.4097 52.7344 22.7319 52.7344H25.073C24.7507 52.7344 24.4871 52.4707 24.4871 52.1484Z" fill="#1A2B63"/>
<path d="M43.5352 54.6094H16.4648C16.1426 54.6094 15.8789 54.873 15.8789 55.1953V56.2912C20.0487 58.6513 24.8666 60 30 60C35.1334 60 39.9513 58.6513 44.1211 56.2911V55.1953C44.1211 54.873 43.8574 54.6094 43.5352 54.6094Z" fill="#BF7E52"/>
<path d="M19.4531 55.1953C19.4531 54.873 19.7168 54.6094 20.0391 54.6094H16.4648C16.1426 54.6094 15.8789 54.873 15.8789 55.1953V56.2912C17.0237 56.9392 18.2175 57.5104 19.4531 57.9988V55.1953Z" fill="#AA6B3F"/>
<path d="M49.7176 2.99893H45.176V3.98436C45.176 4.24288 44.9657 4.45311 44.7072 4.45311H42.7407C42.6759 4.45311 42.6235 4.50561 42.6235 4.5703V5.92862H48.7665C48.5156 11.0618 46.1949 15.66 42.6235 18.905V20.7756C42.6235 21.4562 42.5685 22.1242 42.4644 22.7758C48.0569 18.8427 51.7188 12.3414 51.7188 5.00014C51.7188 3.89659 50.821 2.99893 49.7176 2.99893Z" fill="#FFAF10"/>
<path d="M17.3766 20.7756V18.905C13.8054 15.66 11.4845 11.0618 11.2337 5.92862H17.3766V4.5703C17.3766 4.50561 17.3241 4.45311 17.2595 4.45311H15.2928C15.0343 4.45311 14.8241 4.24288 14.8241 3.98436V2.99893H10.2825C9.17902 2.99893 8.28125 3.89671 8.28125 5.00014C8.28125 12.3415 11.9432 18.8428 17.5357 22.776C17.4315 22.1242 17.3766 21.4562 17.3766 20.7756Z" fill="#FFD00D"/>
<path d="M17.2593 4.45312V20.7756C17.2593 27.8119 22.9634 33.516 29.9997 33.516C37.0359 33.516 42.7402 27.8119 42.7402 20.7756V4.45312H17.2593Z" fill="#EF8318"/>
<path d="M19.8044 20.7756V4.3363H17.2593V20.7756C17.2593 27.8119 22.9634 33.516 29.9997 33.516C30.4264 33.516 30.8474 33.4934 31.2632 33.4521C24.8287 32.8094 19.8044 27.3792 19.8044 20.7756Z" fill="#DB722C"/>
<path d="M30 26.8945C34.7893 26.8945 38.6719 23.012 38.6719 18.2227C38.6719 13.4333 34.7893 9.55078 30 9.55078C25.2107 9.55078 21.3281 13.4333 21.3281 18.2227C21.3281 23.012 25.2107 26.8945 30 26.8945Z" fill="#DB722C"/>
<path d="M23.5547 18.2225C23.5547 13.8107 26.8501 10.171 31.1133 9.62425C30.7486 9.57749 30.3776 9.55066 30 9.55066C25.2107 9.55066 21.3281 13.4332 21.3281 18.2225C21.3281 23.0119 25.2107 26.8944 30 26.8944C30.3776 26.8944 30.7486 26.8676 31.1133 26.8208C26.8501 26.2741 23.5547 22.6344 23.5547 18.2225Z" fill="#C95E23"/>
<path d="M33.0183 23.6365C32.875 23.6366 32.7284 23.5977 32.5827 23.5211L30.2217 22.2799C30.1861 22.2612 30.1066 22.2393 30.0001 22.2393C29.8935 22.2393 29.814 22.2612 29.7782 22.2799L27.4174 23.5211C27.2716 23.5977 27.125 23.6365 26.9818 23.6365C26.7643 23.6365 26.5697 23.5478 26.434 23.3868C26.2834 23.2083 26.2262 22.9605 26.2727 22.6893L26.7237 20.0605C26.7435 19.9451 26.6705 19.7204 26.5867 19.6386L24.6768 17.7769C24.4281 17.5344 24.338 17.2339 24.4295 16.9525C24.521 16.671 24.7705 16.481 25.1141 16.4311L27.7534 16.0477C27.8692 16.0308 28.0604 15.8919 28.1122 15.7869L29.2925 13.3951C29.4463 13.0838 29.7041 12.9053 30.0001 12.9053C30.2961 12.9053 30.5541 13.0838 30.7076 13.3951L31.888 15.7869C31.9398 15.8919 32.1309 16.0309 32.2467 16.0477L34.8861 16.4311C35.2296 16.481 35.4792 16.671 35.5706 16.9525C35.6622 17.2339 35.5722 17.5344 35.3236 17.7768L33.4136 19.6386C33.3297 19.7203 33.2566 19.9451 33.2765 20.0605L33.7273 22.6893C33.7738 22.9605 33.7166 23.2083 33.5661 23.3868C33.4303 23.5478 33.2357 23.6365 33.0183 23.6365Z" fill="#FFD00D"/>
<path d="M28.2073 22.438L28.6958 19.5896C28.7173 19.4645 28.6382 19.2209 28.5473 19.1324L26.4777 17.115C26.2235 16.8672 26.1245 16.5637 26.197 16.274L25.1141 16.4314C24.7705 16.4813 24.521 16.6713 24.4295 16.9527C24.338 17.2342 24.4281 17.5347 24.6768 17.7772L26.5867 19.6389C26.6705 19.7206 26.7435 19.9454 26.7237 20.0608L26.2727 22.6895C26.2263 22.9608 26.2835 23.2086 26.434 23.387C26.5698 23.548 26.7643 23.6368 26.9818 23.6368C27.1252 23.6368 27.2716 23.598 27.4174 23.5213L28.2929 23.061C28.1987 22.885 28.1675 22.6698 28.2073 22.438Z" fill="#FFAF10"/>
<path d="M45.293 3.98438C45.293 4.30664 45.0293 4.57031 44.707 4.57031H15.293C14.9707 4.57031 14.707 4.30664 14.707 3.98438V0.585938C14.707 0.263672 14.9707 0 15.293 0H44.707C45.0293 0 45.293 0.263672 45.293 0.585938V3.98438Z" fill="#FFD00D"/>
<path d="M18.2812 3.98438V0.585938C18.2812 0.263672 18.5449 0 18.8672 0H15.293C14.9707 0 14.707 0.263672 14.707 0.585938V3.98438C14.707 4.30664 14.9707 4.57031 15.293 4.57031H18.8672C18.5449 4.57031 18.2812 4.30664 18.2812 3.98438Z" fill="#FFAF10"/>
<path d="M14.8828 38.7891C14.732 38.7891 14.5979 38.6929 14.5498 38.55C13.8752 36.5515 13.3704 36.0466 11.372 35.3722C11.229 35.3239 11.1328 35.1899 11.1328 35.0391C11.1328 34.8882 11.229 34.7542 11.3719 34.706C13.3703 34.0316 13.8751 33.5266 14.5496 31.5282C14.5979 31.3854 14.7319 31.2892 14.8827 31.2892C15.0335 31.2892 15.1676 31.3854 15.2157 31.5282C15.8903 33.5266 16.3951 34.0316 18.3935 34.706C18.5364 34.7543 18.6327 34.8882 18.6327 35.0391C18.6327 35.1899 18.5365 35.3239 18.3935 35.3722C16.3951 36.0466 15.8903 36.5515 15.2157 38.55C15.1677 38.6929 15.0336 38.7891 14.8828 38.7891Z" fill="#FFD00D"/>
<path d="M44.0039 34.9219C43.8838 34.9219 43.7768 34.8452 43.7384 34.7314C43.2009 33.1389 42.7985 32.7366 41.2061 32.1991C41.0924 32.1606 41.0156 32.0538 41.0156 31.9336C41.0156 31.8135 41.0924 31.7066 41.2061 31.6682C42.7986 31.1307 43.2009 30.7283 43.7384 29.1359C43.7768 29.022 43.8837 28.9453 44.0039 28.9453C44.1241 28.9453 44.2308 29.022 44.2695 29.1359C44.8069 30.7283 45.2093 31.1306 46.8018 31.6682C46.9154 31.7066 46.9922 31.8135 46.9922 31.9336C46.9922 32.0538 46.9154 32.1606 46.8018 32.1991C45.2092 32.7367 44.8069 33.1389 44.2695 34.7314C44.2308 34.8452 44.124 34.9219 44.0039 34.9219Z" fill="white"/>
<path d="M33.1641 49.1016H26.8359C26.5124 49.1016 26.25 48.8392 26.25 48.5156C26.25 48.1921 26.5124 47.9297 26.8359 47.9297H33.1641C33.4877 47.9297 33.75 48.1921 33.75 48.5156C33.75 48.8392 33.4877 49.1016 33.1641 49.1016Z" fill="white"/>
<path d="M31.7578 51.2109H28.2422C27.9186 51.2109 27.6562 50.9486 27.6562 50.625C27.6562 50.3014 27.9186 50.0391 28.2422 50.0391H31.7578C32.0815 50.0391 32.3438 50.3014 32.3438 50.625C32.3438 50.9486 32.0815 51.2109 31.7578 51.2109Z" fill="white"/>
<path d="M22.8516 9.375C22.7385 9.375 22.6379 9.30281 22.6017 9.1957C22.0958 7.69688 21.7172 7.31824 20.2184 6.81234C20.1112 6.77613 20.0391 6.67559 20.0391 6.5625C20.0391 6.44941 20.1112 6.34887 20.2184 6.31266C21.7172 5.80687 22.0958 5.42812 22.6017 3.9293C22.6379 3.82219 22.7385 3.75 22.8516 3.75C22.9646 3.75 23.0652 3.82219 23.1014 3.9293C23.6073 5.42812 23.9859 5.80676 25.4848 6.31266C25.5919 6.34887 25.6641 6.44941 25.6641 6.5625C25.6641 6.67559 25.5919 6.77613 25.4848 6.81234C23.9859 7.31824 23.6073 7.69688 23.1014 9.1957C23.0652 9.30281 22.9646 9.375 22.8516 9.375Z" fill="white"/>
</svg>
